<svg xmlns="http://www.w3.org/2000/svg" width="83" height="56" viewBox="0 0 83 56"><g fill="none" fill-rule="evenodd"><path fill="#000" d="M59.657 28.5L54 22.843v11.314z"/><path stroke="#000" d="M54 28H1v1h53z"/><path stroke="#000" d="M54.986 1C43.888 1 34.104 7.749 30 17.714h.732C34.795 8.14 44.261 1.675 54.986 1.675c14.546 0 26.339 11.786 26.339 26.325s-11.793 26.325-26.34 26.325c-10.724 0-20.19-6.465-24.253-16.04H30C34.104 48.252 43.888 55 54.986 55 69.906 55 82 42.912 82 28S69.905 1 54.986 1z"/></g></svg>