<svg xmlns="http://www.w3.org/2000/svg" width="68.74" height="63.03" viewBox="0 0 68.74 63.03"><defs><style>.cls-1{fill:#fff;}</style></defs><g id="Design"><polygon class="cls-1" points="25.76 15.91 20.23 24.27 15.18 31.91 9.72 40.16 0 40.16 10.31 24.09 11.04 22.95 25.76 0 30.83 8.22 25.77 15.94 25.76 15.91"/><polygon class="cls-1" points="58.94 40.16 47.57 21.98 52.57 14.15 68.74 40.16 58.94 40.16"/><path class="cls-1" d="M43.77,15.91l5.08-7.74L44,.34l-9.05,13.8-3.89,5.94L30,21.77l-.29.45L28.29,24.3l-4.06,6.38-5,7.81-.06.1.06.1,5,7.81,4.06,6.37L29.66,55l.29.44,1.1,1.69L34.94,63l3.89-5.94,1.11-1.69.29-.44,1.37-2.09,4-6.37,5-7.81.06-.1-.06-.1-5-7.81-4-6.38-1.37-2.08-.29-.45ZM34.52,30l.42-.65.43.65,5.46,8.34.14.21-.14.21-5.46,8.34-.43.64-.42-.64L29.05,38.8l-.13-.21.13-.21Z"/></g></svg>