<svg xmlns="http://www.w3.org/2000/svg" width="68.74" height="63.03" viewBox="0 0 68.74 63.03"><defs><style>.cls-1{fill:#fff}</style></defs><g id="Design"><path d="M25.76 15.91l-5.53 8.36-5.05 7.64-5.46 8.25H0l10.31-16.07.73-1.14L25.76 0l5.07 8.22-5.06 7.72-.01-.03zM58.94 40.16L47.57 21.98l5-7.83 16.17 26.01h-9.8z" class="cls-1"/><path d="M43.77 15.91l5.08-7.74L44 .34l-9.05 13.8-3.89 5.94L30 21.77l-.29.45-1.42 2.08-4.06 6.38-5 7.81-.06.1.06.1 5 7.81 4.06 6.37L29.66 55l.29.44 1.1 1.69L34.94 63l3.89-5.94 1.11-1.69.29-.44 1.37-2.09 4-6.37 5-7.81.06-.1-.06-.1-5-7.81-4-6.38-1.37-2.08-.29-.45zM34.52 30l.42-.65.43.65 5.46 8.34.14.21-.14.21-5.46 8.34-.43.64-.42-.64-5.47-8.3-.13-.21.13-.21z" class="cls-1"/></g></svg>