<svg height="63.03" viewBox="0 0 68.74 63.03" width="68.74" xmlns="http://www.w3.org/2000/svg"><g fill="#fff"><path d="m25.76 15.91-5.53 8.36-5.05 7.64-5.46 8.25h-9.72l10.31-16.07.73-1.14 14.72-22.95 5.07 8.22-5.06 7.72zm33.18 24.25-11.37-18.18 5-7.83 16.17 26.01z"/><path d="m43.77 15.91 5.08-7.74-4.85-7.83-9.05 13.8-3.89 5.94-1.06 1.69-.29.45-1.42 2.08-4.06 6.38-5 7.81-.06.1.06.1 5 7.81 4.06 6.37 1.37 2.13.29.44 1.1 1.69 3.89 5.87 3.89-5.94 1.11-1.69.29-.44 1.37-2.09 4-6.37 5-7.81.06-.1-.06-.1-5-7.81-4-6.38-1.37-2.08-.29-.45zm-9.25 14.09.42-.65.43.65 5.46 8.34.14.21-.14.21-5.46 8.34-.43.64-.42-.64-5.47-8.3-.13-.21.13-.21z"/></g></svg>