<svg xmlns="http://www.w3.org/2000/svg" viewBox="0 0 58 53"><path d="M18.401.99C10.341-2.65-1.797 4.223.223 13.79c1.135 5.37 6.072 9.256 11.346 10.222 4.565.836 8.765-1.154 11.838-4.29-.635 4.482-2.517 8.975-4.356 12.679-3.082 6.206-7.503 12.802-13.379 16.71-2.196 1.46-.136 5.011 2.078 3.538C20.671 44.06 39.74 10.625 18.401.99zm4.243 13.003c-2.597 4.447-6.899 7.066-12.084 5.573-4.43-1.275-7.708-6.117-5.671-10.464C8.753.85 19.866 3.805 22.669 11.116a47.2 47.2 0 0 1 .078 2.739c-.034.048-.072.085-.103.138z"/><path d="M48.4.99c-8.06-3.64-20.197 3.233-18.177 12.8 1.134 5.37 6.072 9.256 11.346 10.222 4.565.836 8.765-1.154 11.838-4.29-.636 4.482-2.516 8.975-4.356 12.679-3.082 6.206-7.502 12.802-13.38 16.71-2.195 1.46-.135 5.011 2.08 3.538C50.67 44.06 69.738 10.625 48.4.99zm4.244 13.003c-2.597 4.447-6.899 7.066-12.084 5.573-4.43-1.275-7.708-6.117-5.67-10.464 3.693-7.886 14.003-5.532 17.357 1.074.324 1.222.433 2.462.448 3.75-.017.024-.036.04-.051.067z"/></svg>