<svg xmlns="http://www.w3.org/2000/svg" width="63" height="80" viewBox="0 0 63 80"><title>girl-photography</title><path fill="#888" fill-rule="nonzero" d="M58.56 0H4.16A4.065 4.065 0 0 0 .1 4.06v71.88A4.065 4.065 0 0 0 4.16 80h54.4a4.065 4.065 0 0 0 4.061-4.06V4.06A4.065 4.065 0 0 0 58.561 0zM13.193 47.165c1.315-2.664 1.982-6.856 1.982-12.458v-4.574c0-8.99 7.261-16.304 16.187-16.304 8.925 0 16.187 7.314 16.187 16.304v4.574c0 5.603.667 9.792 1.982 12.452.288.582.585 1.044.873 1.411-1.053.534-2.835 1.165-5.511 1.3-4.654-.037-5.824-2.452-5.931-4.624 3.721-2.47 6.18-6.697 6.18-11.488v-4.892c0-1.975-1.061-3.52-2.99-4.352-6.187-2.667-21.497 2.138-24.165 4.658-.26.245-.406.586-.406.942v3.644c0 4.813 2.482 9.055 6.232 11.52-.198 3.762-3.332 4.582-5.994 4.59-2.286-.12-3.913-.616-4.918-1.042a9.812 9.812 0 0 1-.568-.262c.283-.365.576-.823.86-1.399zm18.169-2.218c-6.17 0-11.19-5.02-11.19-11.19v-3.003c1.288-.823 4.71-2.236 9.111-3.305 5.259-1.277 9.686-1.485 11.843-.555 1 .43 1.425 1.02 1.425 1.972v4.892c0 6.17-5.02 11.189-11.19 11.189zm-5.111 1.605c1.582.634 3.305.986 5.11.986a13.7 13.7 0 0 0 5.151-1.002c.201 1.056.638 2.223 1.523 3.266 1 1.178 2.378 1.966 4.11 2.362-2.41 5.771-8.934 9.212-10.784 10.091-1.852-.876-8.36-4.3-10.776-10.077 3.996-.88 5.275-3.64 5.666-5.626zm4.615 18.323c.317.131.674.131.991 0 .11-.045 2.702-1.13 5.618-3.276 3.57-2.628 6.073-5.728 7.292-9.02 4.426.455 7.772 4.158 7.772 8.802v16.027h-4.9v-8.692a1.296 1.296 0 0 0-2.59 0v8.692H17.673v-8.692a1.296 1.296 0 0 0-2.591 0v8.692h-4.9V61.382c0-4.645 3.345-8.348 7.77-8.802 2.982 8.104 12.493 12.122 12.912 12.295zM60.029 75.94a1.47 1.47 0 0 1-1.468 1.468H55.13V61.382c0-4.187-2.112-7.78-5.336-9.772 2.476-.823 3.598-1.937 3.67-2.01a1.296 1.296 0 0 0-.502-2.133c-.19-.108-2.822-1.814-2.822-12.76v-4.574c0-10.42-8.425-18.896-18.78-18.896-10.354 0-18.778 8.477-18.778 18.896v4.574c0 10.955-2.637 12.669-2.827 12.777a1.296 1.296 0 0 0-.473 2.155c.075.072 1.224 1.154 3.657 1.963-3.231 1.991-5.347 5.588-5.347 9.78v16.026H4.16a1.47 1.47 0 0 1-1.469-1.468V4.06c0-.81.659-1.468 1.469-1.468h54.4c.81 0 1.468.659 1.468 1.468v71.88z"/></svg>