<svg xmlns="http://www.w3.org/2000/svg" width="80" height="81" viewBox="0 0 80 81"><title>inauguration</title><g fill="#888" fill-rule="nonzero"><path d="M16 17.417c-5.787 0-10.667 3.666-10.667 8 0 4.333 4.88 8 10.667 8s10.667-3.667 10.667-8c0-4.334-4.88-8-10.667-8zm0 13.333c-4.267 0-8-2.493-8-5.333 0-2.84 3.733-5.334 8-5.334 4.267 0 8 2.494 8 5.334 0 2.84-3.733 5.333-8 5.333z"/><circle cx="36" cy="40.083" r="1.333"/><path d="M0 54.75c0 7.347 7.173 13.333 16 13.333 11.76 0 19.387-10.2 14.52-18.933l5.333-2.787 12 6.56C42.16 57.777 38.08 64.083 37.4 77.07a2.667 2.667 0 0 0 4 2.467l3.933-2.294 4 2.44a2.667 2.667 0 0 0 4-2.106 24.787 24.787 0 0 1 2.094-9.334c1.426-2.666 5.173-5.066 8.413-7.426 3.573 1.213 9.253 2.773 12.76 1.426 2.133-.826 2.547-2.16 3.2-3.613.286-.638.03-1.39-.587-1.72l-6.946-3.733c3.56-4.2 5.253-8.614 5.066-13.094a19.053 19.053 0 0 0-4.76-12.84l6.774-4.066c.577-.351.8-1.079.52-1.694l-.547-1.2c-1.573-3.573-6.667-3.88-15.373-.96-3.347-2.426-7.027-4.84-8.454-7.453A24.8 24.8 0 0 1 53.4 2.537 2.667 2.667 0 0 0 49.333.47l-4 2.467L41.44.63a2.667 2.667 0 0 0-4 2.44c.68 12.92 4.76 19.32 10.44 24.16l-12 6.573-5.333-2.773c4.88-8.813-2.88-18.947-14.547-18.947-8.827 0-16 5.987-16 13.334 0 9.24 10.92 15.426 20.853 12.693l3.6 1.973-3.6 1.974C10.853 39.31 0 45.55 0 54.75zm57.893-19.747c3.28 2.92 3.44 4.2 3.44 4.574v1.053c0 .387-.186 1.653-3.626 4.68L48 40.083l9.893-5.08zm-4.733 32c-1.8 3.32-2.28 8.414-2.4 10.44l-4-2.44a2.667 2.667 0 0 0-2.747 0l-3.88 2.28a37.187 37.187 0 0 1 3.72-15.346 25.533 25.533 0 0 1 6.574-7.574c8.466 4.654 7.333 4.12 10.546 5.4-2.786 1.92-6.186 4.32-7.813 7.2v.04zm22.56-7.213c-3.653 1.333-11.68-1.733-11.813-1.76-4.894-1.76-3.667-1.333-25.147-13.093l6.387-3.307 31.76 17.12a1.973 1.973 0 0 1-1.187 1v.04zm1.24-38.2l-6.147 3.693a45.827 45.827 0 0 0-4.266-3.866c2.786-.907 9.213-2.547 10.413.133v.04zM43.8 18.297a37.333 37.333 0 0 1-3.72-15.374L44 5.243a2.667 2.667 0 0 0 2.667 0l4-2.466c.133 2.04.613 7.133 2.413 10.453 1.493 2.667 4.36 4.8 7.413 7 7.107 5.067 14.52 11.107 14.174 19.853.16 4-1.334 7.894-4.734 11.747L60.2 46.603c4.24-3.853 3.8-5.426 3.8-6.88.24-3.64-6.107-8.266-9.12-10.453-4.413-3.213-8.427-6.08-11.08-10.973zm-21.653 17.48a2.667 2.667 0 0 0-1.987-.227c-8.28 2.24-17.493-2.693-17.493-10.133 0-5.88 5.986-10.667 13.333-10.667s13.333 4.787 13.333 10.667c0 3.76-1.986 4.333-1.333 6.373.203.702.685 1.29 1.333 1.627l3.787 1.96-5.853 3.213-5.12-2.813zm28-6.734c2.2 1.68 3.626 2.667 5.546 4.12L29.333 46.75A2.667 2.667 0 0 0 28 48.363c-.6 2.04 1.333 2.587 1.333 6.36 0 5.88-5.986 10.667-13.333 10.667S2.667 60.63 2.667 54.75c0-7.547 9.333-12.36 17.48-10.133a2.667 2.667 0 0 0 1.986-.214c52-28.48 12.534-6.88 27.974-15.36h.04z"/><path d="M5.333 54.75c0 4.333 4.88 8 10.667 8s10.667-3.667 10.667-8c0-3.267-2.667-5.813-5.627-7.04-7.4-3-15.707 1.373-15.707 7.04zM22.8 52.083c3.493 3.68-1.173 8-6.8 8-4.267 0-8-2.493-8-5.333 0-2.84 3.733-5.333 8-5.333a9.333 9.333 0 0 1 6.8 2.666z"/></g></svg>