<svg xmlns="http://www.w3.org/2000/svg" width="80" height="80" viewBox="0 0 80 80"><title>rings</title><path fill="#888" fill-rule="nonzero" d="M79.165 46.473A27.118 27.118 0 0 0 68.75 30.95a27.149 27.149 0 0 0-17.025-5.15c-2.792-5.993-7.655-10.728-13.773-13.387a1.186 1.186 0 0 0-.945 2.175c5.82 2.528 10.395 7.114 12.883 12.91a24.985 24.985 0 0 1 1.556 5.047v.001a24.655 24.655 0 0 1-3.144 17.59 24.655 24.655 0 0 1-13.21 10.58 19.284 19.284 0 0 1-.763-2.04l-.034-.11a19.635 19.635 0 0 1-.186-.649l-.005-.016c10.357-3.476 16.62-14.26 14.358-25.065a21.732 21.732 0 0 0-1.868-5.354l-.004-.01-.016-.028a21.847 21.847 0 0 0-10.175-9.86 21.697 21.697 0 0 0-6.637-1.897l8.42-7.827a1.186 1.186 0 0 0 .178-1.53l-.006-.008L34.46.525A1.186 1.186 0 0 0 33.477 0H20.86c-.395 0-.764.197-.984.525l-3.9 5.806a1.185 1.185 0 0 0 .178 1.529l8.42 7.827a21.64 21.64 0 0 0-2.555.46c-11.654 2.84-18.825 14.63-15.986 26.285a21.808 21.808 0 0 0 7.889 12.107 21.864 21.864 0 0 0 12.503 4.49 30.107 30.107 0 0 0 .232.923l.042.15a27.152 27.152 0 0 0 .606 1.92 24.811 24.811 0 0 1-14.62-4.687 24.736 24.736 0 0 1-7.615-31.17 24.757 24.757 0 0 1 12.255-11.58 1.186 1.186 0 0 0-.941-2.177A27.117 27.117 0 0 0 .83 43.698a27.11 27.11 0 0 0 10.467 15.56 27.158 27.158 0 0 0 15.864 5.136c.369 0 .738-.01 1.107-.025C32.719 73.897 42.373 80 52.829 80c2.117 0 4.268-.25 6.415-.773 14.522-3.538 23.459-18.231 19.921-32.754zm-28.838 4.895a27.019 27.019 0 0 0 3.688-17.826 19.503 19.503 0 0 1 10.696 4.033c3.497 2.71 5.9 6.419 6.95 10.727 2.529 10.384-3.861 20.89-14.245 23.42a19.255 19.255 0 0 1-14.66-2.272 19.288 19.288 0 0 1-6.57-6.605 27.017 27.017 0 0 0 14.141-11.477zm-16.699 4.189a19.266 19.266 0 0 1 2.486-12.484 19.267 19.267 0 0 1 10.252-8.458c1.27 9.084-4.087 17.89-12.738 20.942zM21.492 2.37h11.353l2.301 3.427H19.191l2.3-3.427zm-1.524 5.797h14.4l-7.2 6.693-7.2-6.693zm6.011 48.464a19.481 19.481 0 0 1-10.615-3.974c-3.54-2.714-5.97-6.444-7.028-10.787-2.53-10.384 3.86-20.89 14.245-23.42 4.343-1.059 8.773-.616 12.81 1.279a19.493 19.493 0 0 1 8.41 7.598c-6.082 2.14-11.17 6.348-14.43 11.977a26.96 26.96 0 0 0-3.392 17.327zm32.704 20.291a24.7 24.7 0 0 1-5.854.706c-9.843 0-18.909-5.93-22.783-15.1-.042-.101-.085-.201-.126-.302l-.049-.123c-.05-.126-.1-.252-.148-.379l-.022-.057a24.28 24.28 0 0 1-.162-.44l-.005-.014a24.352 24.352 0 0 1-.165-.479l-.001-.002a24.667 24.667 0 0 1-.158-.489l-.01-.035a25.132 25.132 0 0 1-.137-.457l-.042-.15a24.307 24.307 0 0 1-.226-.858 24.243 24.243 0 0 1-.12-.52l-.044-.205a25.447 25.447 0 0 1-.05-.237l-.03-.156-.006-.02a24.608 24.608 0 0 1 2.877-17.113 24.605 24.605 0 0 1 13.482-11.037c.399.908.73 1.85.987 2.814a21.626 21.626 0 0 0-11.82 9.602 21.631 21.631 0 0 0-2.536 15.463v.001l.002.008a22.012 22.012 0 0 0 .304 1.268l.04.14c.04.147.083.295.127.441l.041.132c.048.155.097.309.148.462l.03.092c.06.177.122.352.186.527l.007.019c1.688 4.599 4.856 8.467 9.104 11.05a21.614 21.614 0 0 0 16.453 2.55c11.655-2.84 18.826-14.63 15.987-26.285-1.178-4.834-3.875-8.998-7.8-12.04a21.877 21.877 0 0 0-12.592-4.556 27.316 27.316 0 0 0-.88-2.996 24.745 24.745 0 0 1 24.17 18.886c3.228 13.253-4.927 26.66-18.179 29.89z"/></svg>