<svg xmlns="http://www.w3.org/2000/svg" width="43" height="80" viewBox="0 0 43 80"><title>studio-lighting</title><path fill="#888" fill-rule="nonzero" d="M42.287.535a1.296 1.296 0 0 0-.935-.373l-5.016.076v.03a1.42 1.42 0 0 0-.532.144L23.196 6.569a3.349 3.349 0 0 0-2.276-.893h-1.903a3.37 3.37 0 0 0-3.366 3.366v9.687a3.37 3.37 0 0 0 3.366 3.366h.138l.051 13.944h-4.319a1.3 1.3 0 0 0-1.298 1.298v2.109H8.617c-.58-1.394-2.22-2.402-4.148-2.402-2.41 0-4.372 1.574-4.372 3.51 0 1.934 1.961 3.509 4.372 3.509 2.05 0 3.775-1.14 4.245-2.67h4.874v2.875a1.3 1.3 0 0 0 1.298 1.298h4.307l.002 7.031-11.79 24.338H6.165a.974.974 0 0 0 0 1.947h4.898a.974.974 0 1 0 0-1.947H9.568l9.629-19.875.007 20.99h-1.319a.974.974 0 0 0 0 1.947h4.898a.974.974 0 0 0 0-1.947h-1.63l-.009-21.214 10.294 19.897h-1.097a.974.974 0 0 0 0 1.947h4.897a.974.974 0 0 0 0-1.947H33.63L21.143 52.595l-.002-7.029h4.339a1.3 1.3 0 0 0 1.298-1.298v-6.93a1.3 1.3 0 0 0-1.298-1.298h-4.327l-.05-13.954a3.35 3.35 0 0 0 2.13-.916l12.614 5.735c.186.083.386.127.59.127.019 0 .038-.004.057-.004L41.541 27a1.304 1.304 0 0 0 1.298-1.31l-.162-24.234a1.292 1.292 0 0 0-.39-.92zM4.47 42.116c-1.315 0-2.425-.715-2.425-1.562 0-.847 1.11-1.562 2.425-1.562 1.314 0 2.425.715 2.425 1.562 0 .847-1.11 1.562-2.425 1.562zm20.36 1.503h-9.294v-5.632h9.295v5.632zm-2.49-24.89a1.42 1.42 0 0 1-1.42 1.42h-1.903a1.42 1.42 0 0 1-1.419-1.42V9.043a1.42 1.42 0 0 1 1.419-1.419h1.904a1.42 1.42 0 0 1 1.418 1.419v9.688zm13.576 6.068l-11.714-5.326c.055-.243.084-.492.084-.741V9.042c0-.267-.033-.532-.097-.791l11.727-5.726v22.272zm1.947.276V2.163l2.872-.044.153 22.938-3.025.016z"/></svg>