<svg xmlns="http://www.w3.org/2000/svg" width="80" height="80" viewBox="0 0 80 80"><title>value</title><g fill="#888"><path d="M70.86 47.205l-.41.221c-1.656-2.009-4.524-2.787-6.71-1.68l-.023.012-.967.521a7.348 7.348 0 0 0-8.415-.76l-5.21 2.833H42.19a10.015 10.015 0 0 1-4.335-.993l-.954-.461a16.362 16.362 0 0 0-17.028 1.663.89.89 0 0 0-.066.054l-2.303 2.05a7.987 7.987 0 0 1-3.014 1.68l-1.307-4.293a1.037 1.037 0 0 0-.992-.735H1.055A1.037 1.037 0 0 0 .026 48.48l3.712 30.438c.064.52.505.91 1.03.91H21.47a1.037 1.037 0 0 0 .992-1.338l-2.194-7.2 6.834-4.32a4.112 4.112 0 0 1 3-.389.92.92 0 0 0 .065.014l13.902 2.56a17.99 17.99 0 0 0 11.117-1.57.954.954 0 0 0 .127-.074l24.045-16.51c.453-.31.585-.92.302-1.39a6.6 6.6 0 0 0-8.801-2.406zm-6.172.385c1.264-.633 2.855-.114 3.872.856l-9.119 4.92-.535.281a7.905 7.905 0 0 0-1.25-2.269l7.032-3.788zm-9.35-.256l.025-.014a5.273 5.273 0 0 1 5.363.05l-4.636 2.496a7.878 7.878 0 0 0-2.962-1.333l2.21-1.2zM5.685 77.756L2.226 49.39h9.198l8.648 28.365H5.685zM54.2 65.759a15.903 15.903 0 0 1-9.759 1.356L30.573 64.56a6.182 6.182 0 0 0-4.555.64l-6.378 4.032-4.544-14.903a10.067 10.067 0 0 0 3.787-2.118l2.27-2.022a14.296 14.296 0 0 1 14.845-1.428l.954.461a12.101 12.101 0 0 0 5.238 1.2h9.248a5.849 5.849 0 0 1 5.737 4.75l-6.703-.303a40.14 40.14 0 0 0-7.295.337 1.037 1.037 0 0 0 .284 2.054 38.01 38.01 0 0 1 6.917-.32l7.889.358h.047c.572 0 1.036-.463 1.036-1.036 0-.168-.007-.334-.017-.5l1.082-.57 11.43-6.164a4.53 4.53 0 0 1 5.45.874L54.2 65.759z"/><path d="M8.98 73.467a3.264 3.264 0 1 0 6.528 0 3.264 3.264 0 0 0-6.528 0zm3.264-1.19a1.19 1.19 0 1 1 0 2.38 1.19 1.19 0 0 1 0-2.38zm35.552-60.993V7.867a7.87 7.87 0 0 0-15.738 0v3.417a7.87 7.87 0 0 0 15.738 0zm-13.665 0V7.867a5.796 5.796 0 0 1 11.592 0v3.417a5.796 5.796 0 0 1-11.592 0zm-6.888 29.221h25.369c.572 0 1.036-.464 1.036-1.036v-2.38h17.367c.573 0 1.037-.464 1.037-1.037v-6.729a7.77 7.77 0 0 0-7.276-7.75c-.553-.04-.837.31-1.067.59a4.758 4.758 0 0 1-7.507-.183 1.037 1.037 0 0 0-.86-.42 7.686 7.686 0 0 0-3.813 1.112 8.715 8.715 0 0 0-6.082-3.016c-.536-.022-.806.303-1.069.622a5.582 5.582 0 0 1-8.808-.215c-.2-.273-.522-.43-.86-.42a8.676 8.676 0 0 0-6.397 3.04 7.708 7.708 0 0 0-3.534-1.11c-.551-.041-.838.309-1.068.59a4.757 4.757 0 0 1-7.506-.183 1.04 1.04 0 0 0-.86-.42 7.767 7.767 0 0 0-7.57 7.763v6.73c0 .572.465 1.036 1.037 1.036h17.394v2.38c0 .572.464 1.036 1.037 1.036zM54.9 23.666a6.832 6.832 0 0 0 10.229.027 5.7 5.7 0 0 1 4.85 5.63v5.693h-16.33v-6.651a8.674 8.674 0 0 0-.959-3.97 5.604 5.604 0 0 1 2.21-.729zm-20.637-1.919a7.657 7.657 0 0 0 11.566.028 6.66 6.66 0 0 1 5.747 6.59v10.067H28.28V28.365a6.698 6.698 0 0 1 5.983-6.618zM9.85 35.016v-5.693a5.733 5.733 0 0 1 5.054-5.656 6.832 6.832 0 0 0 10.228.026 5.64 5.64 0 0 1 2.023.714 8.686 8.686 0 0 0-.948 3.958v6.65H9.85z"/><path d="M66.93 14.372v-2.99a7.017 7.017 0 1 0-14.035 0v2.99a7.017 7.017 0 1 0 14.034 0zm-11.962 0v-2.99a4.944 4.944 0 1 1 9.888 0v2.99a4.944 4.944 0 0 1-9.888 0zm-28.036 0v-2.99a7.017 7.017 0 1 0-14.034 0v2.99a7.017 7.017 0 1 0 14.034 0zm-11.96 0v-2.99a4.944 4.944 0 1 1 9.887 0v2.99a4.944 4.944 0 1 1-9.888 0z"/></g></svg>